<?xml version="1.0" ?><svg id="Icons" viewBox="0 0 136 136" xmlns="http://www.w3.org/2000/svg"><defs><style>.cls-1{fill:#525456;}.cls-2{fill:#7b7d80;}.cls-3{fill:#fdc75b;}.cls-4{fill:#ed654b;}.cls-5{fill:#2edf84;}.cls-6{fill:#a4a7ab;}</style></defs><rect class="cls-1" height="7" width="108" x="14" y="48"/><rect class="cls-1" height="9" width="108" x="14" y="80"/><rect class="cls-2" height="30" rx="2" width="120" x="8" y="20"/><circle class="cls-3" cx="106" cy="35" r="3"/><circle class="cls-4" cx="95" cy="35" r="3"/><circle class="cls-5" cx="116" cy="35" r="3"/><rect class="cls-6" height="18" width="3" x="19" y="26"/><rect class="cls-6" height="18" width="3" x="26" y="26"/><rect class="cls-6" height="18" width="3" x="33" y="26"/><rect class="cls-6" height="18" width="3" x="40" y="26"/><rect class="cls-6" height="18" width="3" x="47" y="26"/><rect class="cls-6" height="18" width="3" x="54" y="26"/><rect class="cls-2" height="30" rx="2" width="120" x="8" y="53"/><circle class="cls-3" cx="106" cy="68" r="3"/><circle class="cls-4" cx="95" cy="68" r="3"/><circle class="cls-5" cx="116" cy="68" r="3"/><rect class="cls-6" height="18" width="3" x="19" y="59"/><rect class="cls-6" height="18" width="3" x="26" y="59"/><rect class="cls-6" height="18" width="3" x="33" y="59"/><rect class="cls-6" height="18" width="3" x="40" y="59"/><rect class="cls-6" height="18" width="3" x="47" y="59"/><rect class="cls-6" height="18" width="3" x="54" y="59"/><rect class="cls-2" height="30" rx="2" width="120" x="8" y="86"/><circle class="cls-3" cx="106" cy="101" r="3"/><circle class="cls-4" cx="95" cy="101" r="3"/><circle class="cls-5" cx="116" cy="101" r="3"/><rect class="cls-6" height="18" width="3" x="19" y="92"/><rect class="cls-6" height="18" width="3" x="26" y="92"/><rect class="cls-6" height="18" width="3" x="33" y="92"/><rect class="cls-6" height="18" width="3" x="40" y="92"/><rect class="cls-6" height="18" width="3" x="47" y="92"/><rect class="cls-6" height="18" width="3" x="54" y="92"/></svg>