<svg xmlns="http://www.w3.org/2000/svg" viewBox="0 0 52 52"><title>email</title><g id="email"><g id="email-2" data-name="email"><rect x="2" y="20" width="48" height="26" fill="#1aa6b8"/><polygon points="50 20.06 2 20.06 26 2 50 20.06" fill="#24b9cc"/><polygon points="39.12 6.09 5.71 6.09 5.71 38.02 46.29 38.02 46.29 13.83 39.12 6.09" fill="#eae8e8"/><polygon points="39.12 6.09 39.12 13.83 46.29 13.83 39.12 6.09" fill="#d7d4d4"/><polygon points="50 20 50 50 26 34 50 20" fill="#80deea"/><polygon points="26 34 2 50 2 20 26 34" fill="#80deea"/><polygon points="50 50 2 50 26 34 50 50" fill="#5cd4e3"/><path d="M26,12a8,8,0,1,0,5.19,14.08l-1-1.22A6.4,6.4,0,1,1,32.4,20v1.2a1.2,1.2,0,0,1-2.4,0V16H28.4v.82A4,4,0,0,0,26,16a4,4,0,1,0,2.88,6.76A2.79,2.79,0,0,0,34,21.6h0V20A8,8,0,0,0,26,12ZM26,22.4A2.4,2.4,0,1,1,28.4,20,2.4,2.4,0,0,1,26,22.4Z" fill="#ff6e40"/></g></g></svg>