<?xml version="1.0" encoding="iso-8859-1"?>
<!-- Uploaded to: SVG Repo, www.svgrepo.com, Generator: SVG Repo Mixer Tools -->
<svg height="800px" width="800px" version="1.1" id="Layer_1" xmlns="http://www.w3.org/2000/svg" xmlns:xlink="http://www.w3.org/1999/xlink" 
	 viewBox="0 0 512 512" xml:space="preserve">
<path style="fill:#E9F2F4;" d="M503.916,256c0,136.92-110.995,247.916-247.916,247.916S8.084,392.92,8.084,256
	S119.08,8.084,256,8.084S503.916,119.08,503.916,256z"/>
<path style="fill:#CFDFE2;" d="M482.358,256c0,125.014-101.344,226.358-226.358,226.358S29.642,381.014,29.642,256
	S130.986,29.642,256,29.642S482.358,130.986,482.358,256z"/>
<path style="fill:#A5A5A5;" d="M460.8,256L460.8,256c0,16.966-13.754,30.72-30.72,30.72h-13.128
	c-4.25,22.403-13.054,43.191-25.424,61.362l9.288,9.288c11.997,11.997,11.997,31.448,0,43.445l0,0
	c-11.997,11.997-31.448,11.997-43.445,0l-9.288-9.288c-18.171,12.37-38.959,21.174-61.362,25.424v13.129
	c0,16.966-13.754,30.72-30.72,30.72s-30.721-13.754-30.721-30.72v-13.128c-22.403-4.25-43.191-13.054-61.362-25.424l-9.288,9.288
	c-11.997,11.997-31.448,11.997-43.445,0l0,0c-11.997-11.997-11.997-31.448,0-43.445l9.288-9.288
	c-12.371-18.172-21.175-38.961-25.425-61.363H81.92c-16.966,0-30.72-13.754-30.72-30.72l0,0c0-16.966,13.754-30.72,30.72-30.72
	h13.128c4.25-22.403,13.054-43.191,25.424-61.362l-9.288-9.288c-11.997-11.997-11.997-31.448,0-43.445l0,0
	c11.997-11.997,31.448-11.997,43.445,0l9.288,9.288c18.172-12.37,38.96-21.175,61.363-25.425V81.92
	c0-16.966,13.754-30.72,30.72-30.72s30.72,13.754,30.72,30.72v13.128c22.403,4.25,43.191,13.054,61.362,25.424l9.288-9.288
	c11.997-11.997,31.448-11.997,43.445,0l0,0c11.997,11.997,11.997,31.448,0,43.445l-9.288,9.288
	c12.37,18.171,21.174,38.959,25.424,61.362h13.129C447.046,225.28,460.8,239.034,460.8,256z"/>
<path style="fill:#777777;" d="M385.347,256c0,71.436-57.911,129.347-129.347,129.347S126.653,327.436,126.653,256
	S184.564,126.653,256,126.653S385.347,184.564,385.347,256z"/>
<path style="fill:#84A7B7;" d="M497.601,436.627l-93.073-93.312c-8.419-8.419-22.069-8.419-30.487,0l-24.322-24.322l0,0
	c29.79-44.027,25.199-104.374-13.787-143.36c-44.199-44.199-115.86-44.199-160.059,0s-44.199,115.86,0,160.06
	c38.985,38.985,99.333,43.576,143.359,13.787l0,0l24.322,24.322c-8.419,8.419-8.419,22.069,0,30.488l93.073,93.311
	c8.418,8.419,22.069,8.419,30.487,0l30.487-30.487C506.021,458.695,506.021,445.045,497.601,436.627z"/>
<path style="fill:#256277;" d="M349.72,318.993l24.322,24.322l-30.487,30.487l-24.322-24.322c5.887-3.984,11.487-8.574,16.7-13.787
	C341.146,330.479,345.736,324.881,349.72,318.993z"/>
<path style="fill:#C3E4ED;" d="M331.356,255.664c0,41.671-33.781,75.453-75.453,75.453s-75.453-33.781-75.453-75.453
	s33.781-75.453,75.453-75.453S331.356,213.992,331.356,255.664z"/>
<path style="fill:#DCF3F9;" d="M326.979,230.318l-96.422,96.422c-14.102-5.029-26.274-14.125-35.084-25.891l105.616-105.616
	C312.854,204.044,321.95,216.216,326.979,230.318z M281.248,184.587l-96.422,96.422c1.263,3.541,2.779,6.961,4.534,10.235
	l102.123-102.123C288.209,187.366,284.788,185.85,281.248,184.587z"/>
<path style="fill:#FFFFFF;" d="M256.239,199.242c11.906,0,21.558,9.651,21.558,21.558c0,11.906-9.651,21.558-21.558,21.558
	c-11.906,0-21.558-9.651-21.558-21.558C234.681,208.894,244.333,199.242,256.239,199.242z"/>
<path style="fill:#4C4C4C;" d="M452.716,256c0-12.481-10.155-22.636-22.636-22.636h-13.129c-3.885,0-7.219-2.763-7.942-6.578
	c-3.983-20.996-12.112-40.617-24.164-58.318c-2.185-3.21-1.78-7.52,0.966-10.266l9.288-9.288c8.826-8.826,8.826-23.187,0-32.011
	c-8.826-8.828-23.188-8.826-32.011,0l-9.287,9.287c-2.748,2.746-7.057,3.151-10.266,0.967
	c-17.703-12.053-37.325-20.183-58.32-24.165c-3.816-0.723-6.578-4.058-6.578-7.942V81.92c0-12.481-10.155-22.636-22.636-22.636
	c-12.482,0-22.636,10.155-22.636,22.636v13.129c0,3.885-2.763,7.219-6.577,7.942c-20.996,3.983-40.617,12.112-58.319,24.165
	c-3.21,2.186-7.519,1.78-10.266-0.966l-9.288-9.288c-8.826-8.827-23.187-8.827-32.011,0c-8.826,8.826-8.826,23.187,0,32.011
	l9.288,9.289c2.745,2.745,3.152,7.056,0.966,10.265c-12.051,17.702-20.181,37.323-24.164,58.319
	c-0.724,3.815-4.059,6.577-7.943,6.577H81.92c-12.482,0-22.636,10.155-22.636,22.636c0,12.481,10.154,22.636,22.636,22.636h13.128
	c3.884,0,7.219,2.763,7.943,6.577c3.984,20.996,12.113,40.618,24.164,58.32c2.185,3.21,1.78,7.52-0.966,10.265l-9.288,9.288
	c-8.826,8.826-8.826,23.188,0,32.012c8.826,8.827,23.186,8.827,32.011,0l9.288-9.288c2.745-2.746,7.055-3.154,10.266-0.966
	c17.702,12.052,37.324,20.181,58.319,24.164c3.816,0.723,6.577,4.058,6.577,7.942v13.13c0,12.481,10.154,22.636,22.636,22.636
	c12.481,0,22.636-10.155,22.636-22.636v-13.129c0-3.885,2.763-7.219,6.578-7.943c7.453-1.413,14.862-3.392,22.025-5.885
	c4.217-1.469,8.826,0.761,10.292,4.978c1.467,4.216-0.761,8.825-4.978,10.292c-5.798,2.018-11.745,3.733-17.748,5.119v6.569
	c0,21.397-17.407,38.804-38.804,38.804c-21.397,0-38.804-17.407-38.804-38.804v-6.565c-18.541-4.266-36.049-11.521-52.202-21.63
	l-4.649,4.649c-15.129,15.128-39.747,15.128-54.877,0c-15.13-15.13-15.13-39.748,0-54.879l4.648-4.648
	c-10.11-16.152-17.364-33.662-21.631-52.202H81.92c-21.397,0-38.804-17.407-38.804-38.804s17.407-38.804,38.804-38.804h6.565
	c4.266-18.541,11.522-36.049,21.631-52.202l-4.648-4.649c-15.13-15.129-15.13-39.747,0-54.878c15.129-15.128,39.747-15.128,54.877,0
	l4.649,4.649c16.153-10.11,33.662-17.364,52.202-21.63V81.92c0-21.397,17.407-38.804,38.804-38.804s38.804,17.407,38.804,38.804
	v6.565c18.541,4.266,36.048,11.521,52.202,21.63l4.648-4.648c15.129-15.129,39.747-15.129,54.879-0.001
	c15.129,15.13,15.129,39.748,0,54.879l-4.649,4.648c10.11,16.153,17.364,33.662,21.63,52.202h6.564
	c21.397,0,38.804,17.407,38.804,38.804s-17.407,38.804-38.804,38.804h-6.569c-1.387,6.007-3.101,11.953-5.119,17.748
	c-1.469,4.217-6.077,6.444-10.293,4.977c-4.217-1.468-6.445-6.077-4.977-10.293c2.491-7.155,4.471-14.563,5.885-22.022
	c0.724-3.816,4.059-6.578,7.943-6.578h13.129C442.561,278.636,452.716,268.481,452.716,256z M259.103,495.812
	c-0.033,0-0.068,0-0.101,0.001c-1,0.012-1.999,0.018-3.002,0.018C123.756,495.832,16.168,388.244,16.168,256
	S123.756,16.168,256,16.168S495.832,123.756,495.832,256c0,36.543-8.004,71.624-23.789,104.27
	c-1.945,4.019-0.261,8.854,3.759,10.797c4.016,1.942,8.854,0.26,10.797-3.759C503.453,332.451,512,295.001,512,256
	c0-68.379-26.628-132.667-74.982-181.019C388.667,26.628,324.379,0,256,0S123.333,26.628,74.981,74.982
	C26.628,123.333,0,187.62,0,256s26.628,132.667,74.981,181.019C123.333,485.372,187.62,512,256,512c1.068,0,2.134-0.006,3.2-0.02
	c4.465-0.054,8.039-3.718,7.984-8.182C267.13,499.367,263.523,495.812,259.103,495.812z M287.119,493.833l-0.673,0.085
	c-4.429,0.554-7.572,4.595-7.019,9.025c0.512,4.09,3.994,7.082,8.012,7.082c0.335,0,0.673-0.022,1.013-0.064l0.742-0.096
	c4.427-0.572,7.553-4.627,6.979-9.054C295.601,496.383,291.537,493.251,287.119,493.833z M503.326,430.916
	c5.591,5.592,8.674,13.036,8.674,20.953c0,7.917-3.083,15.362-8.682,20.96l-30.487,30.488c-5.779,5.777-13.369,8.667-20.96,8.667
	c-7.591,0-15.181-2.89-20.96-8.667l-93.081-93.32c-9.57-9.572-11.209-24.122-4.916-35.405l-14.791-14.791
	c-18.61,11.163-39.958,17.123-62.22,17.123c-32.391,0-62.843-12.615-85.747-35.519c-47.281-47.28-47.281-124.21,0-171.492
	c47.281-47.28,124.211-47.279,171.493,0c40.051,40.051,46.173,101.384,18.368,147.941l14.808,14.808
	c4.369-2.448,9.314-3.75,14.459-3.75c7.918,0,15.362,3.084,20.961,8.682c0.002,0.003,0.004,0.005,0.008,0.008L503.326,430.916z
	 M330.216,329.976c4.817-4.817,9.066-9.987,12.751-15.43c0.031-0.049,0.065-0.096,0.097-0.144
	c27.551-40.851,23.269-96.934-12.849-133.051c-20.488-20.489-47.4-30.733-74.313-30.733c-26.912,0-53.825,10.244-74.313,30.733
	c-40.976,40.976-40.976,107.649,0,148.626c19.851,19.851,46.242,30.784,74.313,30.784c21.085,0,41.223-6.169,58.352-17.651
	c0.293-0.23,0.6-0.437,0.916-0.62C320.507,338.83,325.543,334.651,330.216,329.976z M343.554,362.37l19.056-19.055l-11.959-11.959
	c-2.782,3.477-5.781,6.833-9.001,10.053c-3.208,3.207-6.56,6.211-10.047,9.007L343.554,362.37z M495.832,451.871
	c0-3.599-1.401-6.984-3.946-9.527l-93.081-93.319c-2.541-2.539-5.923-3.94-9.52-3.94c-3.599,0-6.983,1.402-9.526,3.946
	l-30.488,30.488c-5.253,5.253-5.253,13.801,0,19.055l93.081,93.319c5.245,5.246,13.793,5.247,19.046-0.008l30.488-30.488
	C494.43,458.852,495.832,455.47,495.832,451.871z M314.973,196.594c32.571,32.572,32.571,85.569,0,118.14
	c-16.286,16.284-37.678,24.427-59.07,24.427s-42.784-8.143-59.07-24.427c-32.571-32.572-32.571-85.569,0-118.14
	C229.404,164.023,282.4,164.023,314.973,196.594z M303.539,208.027c-26.264-26.267-69.006-26.267-95.273,0
	c-26.266,26.266-26.266,69.007,0,95.274c13.132,13.131,30.387,19.696,47.636,19.699c17.254,0.001,34.501-6.565,47.638-19.7
	C329.807,277.034,329.807,234.293,303.539,208.027z M319.077,487.453l-0.856,0.231c-4.312,1.159-6.867,5.594-5.709,9.906
	c0.97,3.609,4.236,5.988,7.802,5.988c0.695,0,1.401-0.091,2.104-0.279l0.907-0.246c4.308-1.174,6.849-5.617,5.676-9.924
	C327.828,488.82,323.376,486.284,319.077,487.453z M359.501,472.412c-4.025,1.933-5.723,6.762-3.791,10.786
	c1.39,2.897,4.282,4.589,7.294,4.589c1.174,0,2.365-0.257,3.492-0.798l0.804-0.387l-7.033-14.559L359.501,472.412z"/>
</svg>