<?xml version="1.0" ?>
<!-- Uploaded to: SVG Repo, www.svgrepo.com, Generator: SVG Repo Mixer Tools -->
<svg width="800px" height="800px" viewBox="0 0 64 64" id="svg5" version="1.1" xml:space="preserve" xmlns="http://www.w3.org/2000/svg" xmlns:svg="http://www.w3.org/2000/svg">
<defs id="defs2"/>
<g id="layer1" transform="translate(0,-192)">
<path d="m 10,201 h 49 v 6 H 10 Z" id="path10237" style="fill:#3e4f59;fill-opacity:1;fill-rule:evenodd;stroke-width:2;stroke-linecap:round;stroke-linejoin:round;stroke-miterlimit:4.1"/>
<path d="m 10,207 h 49 v 40 H 10 Z" id="path10239" style="fill:#acbec2;fill-opacity:1;fill-rule:evenodd;stroke-width:2.00001;stroke-linecap:round;stroke-linejoin:round;stroke-miterlimit:4.1"/>
<path d="m 10,207 v 40 h 29.769532 a 28.484051,41.392605 35.599482 0 0 18.625,-40 z" id="path10241" style="fill:#e8edee;fill-opacity:1;fill-rule:evenodd;stroke:none;stroke-width:2.00002;stroke-linecap:round;stroke-linejoin:round;stroke-miterlimit:4.1"/>
<path d="m 12,200 c -1.645006,0 -3,1.355 -3,3 v 40 c 0,0.55229 0.4477153,1 1,1 0.552285,0 1,-0.44771 1,-1 v -40 c 0,-0.56413 0.435873,-1 1,-1 h 45 c 0.564127,0 1,0.43587 1,1 v 3 H 16 c -0.552285,0 -1,0.44772 -1,1 0,0.55229 0.447715,1 1,1 h 42 v 37 c 0,0.56413 -0.435873,1 -1,1 H 8 c -0.5522847,0 -1,0.44772 -1,1 0,0.55229 0.4477153,1 1,1 h 49 c 1.645006,0 3,-1.35499 3,-3 0,-14 0,-28 0,-42 0,-1.645 -1.354994,-3 -3,-3 z" id="path10243" style="color:#000000;fill:#000000;fill-rule:evenodd;stroke-linecap:round;stroke-linejoin:round;stroke-miterlimit:4.1"/>
<path d="m 55,203 c -0.552285,0 -1,0.44772 -1,1 0,0.55229 0.447715,1 1,1 0.552285,0 1,-0.44771 1,-1 0,-0.55228 -0.447715,-1 -1,-1 z" id="path10245" style="color:#000000;fill:#ed7161;fill-opacity:1;fill-rule:evenodd;stroke-linecap:round;stroke-linejoin:round;stroke-miterlimit:4.1;-inkscape-stroke:none"/>
<path d="m 51,203 c -0.552285,0 -1,0.44772 -1,1 0,0.55229 0.447715,1 1,1 0.552285,0 1,-0.44771 1,-1 0,-0.55228 -0.447715,-1 -1,-1 z" id="path10247" style="color:#000000;fill:#ecba16;fill-opacity:1;fill-rule:evenodd;stroke-linecap:round;stroke-linejoin:round;stroke-miterlimit:4.1;-inkscape-stroke:none"/>
<path d="m 47,203 c -0.552285,0 -1,0.44772 -1,1 0,0.55229 0.447715,1 1,1 0.552285,0 1,-0.44771 1,-1 0,-0.55228 -0.447715,-1 -1,-1 z" id="path10249" style="color:#000000;fill:#42b05c;fill-opacity:1;fill-rule:evenodd;stroke-linecap:round;stroke-linejoin:round;stroke-miterlimit:4.1;-inkscape-stroke:none"/>
<path d="m 5,246 a 1,1 0 0 0 -1,1 1,1 0 0 0 1,1 1,1 0 0 0 1,-1 1,1 0 0 0 -1,-1 z" id="path10251" style="color:#000000;fill:#000000;fill-rule:evenodd;stroke-linecap:round;stroke-linejoin:round;stroke-miterlimit:4.1;-inkscape-stroke:none"/>
<path d="m 13,206 c -0.552285,0 -1,0.44772 -1,1 0,0.55229 0.447715,1 1,1 0.552285,0 1,-0.44771 1,-1 0,-0.55228 -0.447715,-1 -1,-1 z" id="path10253" style="color:#000000;fill:#000000;fill-rule:evenodd;stroke-linecap:round;stroke-linejoin:round;stroke-miterlimit:4.1;-inkscape-stroke:none"/>
<path d="m 32,217 a 11,11 0 0 0 -11,11 11,11 0 0 0 11,11 11,11 0 0 0 11,-11 H 32 Z" id="path15638" style="fill:#0075d3;fill-opacity:1;fill-rule:evenodd;stroke:none;stroke-width:2;stroke-linecap:round;stroke-linejoin:round;stroke-miterlimit:4.1"/>
<path d="m 32.000003,217 a 11,11 0 0 0 -10.999999,11 11,11 0 0 0 5.388662,9.4375 23.505793,27.007267 53.71305 0 0 4.300788,-2.58984 A 23.505793,27.007267 53.71305 0 0 37.458986,228 h -5.458989 z" id="path4621" style="fill:#0588e2;fill-opacity:1;fill-rule:evenodd;stroke-width:2;stroke-linecap:round;stroke-linejoin:round;stroke-miterlimit:4.1"/>
<path d="m 36,213 v 11 H 47 A 11,11 0 0 0 36,213 Z" id="rect15643" style="fill:#fe73c5;fill-opacity:1;fill-rule:evenodd;stroke:none;stroke-width:2;stroke-linecap:round;stroke-linejoin:round;stroke-miterlimit:4.1"/>
<path d="m 32,216 c -6.615566,0 -12,5.38444 -12,12 a 1,1 0 0 0 1,1 1,1 0 0 0 1,-1 c 0,-5.53468 4.465314,-10 10,-10 a 1,1 0 0 0 1,-1 1,1 0 0 0 -1,-1 z m 0,4.69727 a 1,1 0 0 0 -1,1 V 228 a 1.0001,1.0001 0 0 0 1,1 h 9.798828 c -0.523115,5.03811 -4.619227,9 -9.798828,9 -3.873794,0 -7.218897,-2.19534 -8.882813,-5.4043 a 1,1 0 0 0 -1.349609,-0.42773 1,1 0 0 0 -0.427734,1.34961 C 23.337686,237.37053 27.369685,240 32,240 c 6.615566,0 12,-5.38444 12,-12 a 1.0001,1.0001 0 0 0 -1,-1 H 33 v -5.30273 a 1,1 0 0 0 -1,-1 z" id="path11964" style="color:#000000;fill:#000000;fill-rule:evenodd;stroke-linecap:round;stroke-linejoin:round;stroke-miterlimit:4.1;-inkscape-stroke:none"/>
<path d="m 36.000002,213 -3e-6,11 h 3.86328 A 23.505793,27.007267 53.71305 0 0 42.48047,215.11328 11,11 0 0 0 36.000002,213 Z" id="ellipse4635" style="fill:#fe93d3;fill-opacity:1;fill-rule:evenodd;stroke-width:2;stroke-linecap:round;stroke-linejoin:round;stroke-miterlimit:4.1"/>
<path d="m 36,212 a 1.0001,1.0001 0 0 0 -1,1 v 11 a 1.0001,1.0001 0 0 0 1,1 h 11 a 1.0001,1.0001 0 0 0 1,-1 c 0,-1.66945 -0.342528,-3.26376 -0.960938,-4.71094 a 1,1 0 0 0 -1.3125,-0.52734 1,1 0 0 0 -0.52539,1.3125 c 0.38365,0.8978 0.490167,1.91454 0.595703,2.92578 H 37 v -8.80273 c 2.291208,0.23813 4.395178,1.10473 5.960937,2.62304 a 1,1 0 0 0 1.414063,-0.0215 1,1 0 0 0 -0.02148,-1.41406 C 42.194319,213.291 39.241092,212 36,212 Z" id="path11966" style="color:#000000;fill:#000000;fill-rule:evenodd;stroke-linecap:round;stroke-linejoin:round;stroke-miterlimit:4.1"/>
</g>
</svg>